<svg xmlns="http://www.w3.org/2000/svg" xmlns:xlink="http://www.w3.org/1999/xlink" version="1.2" width="210.00mm" height="297.00mm" viewBox="0.0000 -0.0000 119.5016 169.0094">
<style type="text/css">
<![CDATA[
tspan { white-space: pre; }
]]>
</style>
<g transform="translate(46.7039, 11.6906)">
<rect x="0.0000" y="-2.0000" width="0.1900" height="4.0000" ry="0.0000" fill="currentColor"/>
</g>
<g transform="translate(33.4902, 11.6906)">
<rect x="0.0000" y="-2.0000" width="0.1900" height="4.0000" ry="0.0000" fill="currentColor"/>
</g>
<a style="color:inherit;" xlink:href="textedit://D:/Materi/Semester%208/Skripsi/NyanyianGPM/frontendNyanyianGPM/public/scores/contoh.ly:8:21:22">
<g transform="translate(43.7343, 12.6906)">
<path transform="scale(0.0040, -0.0040)" d="M122 503c18 0 34 -16 53 -16c12 0 33 12 46 12c7 0 12 -3 12 -15v-367c0 -48 28 -94 73 -94c8 0 12 -5 12 -11s-4 -12 -12 -12c-44 0 -87 13 -131 13s-87 -13 -131 -13c-8 0 -12 6 -12 12s4 11 12 11c45 0 73 46 73 94v245c0 12 -9 19 -17 19c-4 0 -8 -3 -10 -7l-64 -136
c-3 -6 -7 -9 -12 -9c-8 0 -16 6 -16 14c0 2 1 5 2 7l117 250c1 2 3 3 5 3z" fill="currentColor"/>
</g>
</a>
<a style="color:inherit;" xlink:href="textedit://D:/Materi/Semester%208/Skripsi/NyanyianGPM/frontendNyanyianGPM/public/scores/contoh.ly:8:19:20">
<g transform="translate(40.6863, 12.6906)">
<path transform="scale(0.0040, -0.0040)" d="M71 412c-34 0 -42 -42 -42 -72v-75c0 -10 -7 -15 -14 -15s-15 5 -15 15v220c0 10 8 15 15 15s14 -5 14 -15v-14c0 -8 9 -16 13 -16c1 0 2 0 2 1c20 29 52 44 85 44c28 0 56 -11 77 -32c13 -13 31 -19 48 -19c29 0 59 17 79 45c3 5 7 6 11 6c8 0 16 -6 16 -14
c0 -3 -1 -6 -3 -9c-83 -118 -161 -248 -161 -386c0 -24 3 -50 8 -75v-3c0 -8 -6 -14 -13 -14c-1 0 -2 1 -3 1c-23 7 -47 13 -71 13s-48 -6 -71 -13c-1 0 -3 -1 -4 -1c-7 0 -14 6 -14 13c0 2 0 2 1 4c55 130 136 246 219 360c-21 -11 -41 -17 -61 -17c-23 0 -44 8 -63 27
c-16 16 -36 26 -53 26z" fill="currentColor"/>
</g>
</a>
<a style="color:inherit;" xlink:href="textedit://D:/Materi/Semester%208/Skripsi/NyanyianGPM/frontendNyanyianGPM/public/scores/contoh.ly:8:17:18">
<g transform="translate(37.6282, 12.6906)">
<path transform="scale(0.0040, -0.0040)" d="M170 259c-51 0 -53 -43 -53 -100v-18v-18c0 -57 2 -100 53 -100c57 0 61 51 61 118s-4 118 -61 118zM117 266c15 10 33 16 53 16c101 0 170 -46 170 -141s-69 -141 -170 -141c-112 0 -170 124 -170 250c0 128 72 250 190 250c70 0 136 -39 136 -103
c0 -36 -29 -66 -65 -66s-66 30 -66 66c0 24 40 25 40 49c0 20 -23 31 -45 31c-66 0 -75 -65 -75 -139c0 -24 2 -48 2 -72z" fill="currentColor"/>
</g>
</a>
<a style="color:inherit;" xlink:href="textedit://D:/Materi/Semester%208/Skripsi/NyanyianGPM/frontendNyanyianGPM/public/scores/contoh.ly:8:25:26">
<g transform="translate(50.9586, 12.6906)">
<path transform="scale(0.0040, -0.0040)" d="M122 503c18 0 34 -16 53 -16c12 0 33 12 46 12c7 0 12 -3 12 -15v-367c0 -48 28 -94 73 -94c8 0 12 -5 12 -11s-4 -12 -12 -12c-44 0 -87 13 -131 13s-87 -13 -131 -13c-8 0 -12 6 -12 12s4 11 12 11c45 0 73 46 73 94v245c0 12 -9 19 -17 19c-4 0 -8 -3 -10 -7l-64 -136
c-3 -6 -7 -9 -12 -9c-8 0 -16 6 -16 14c0 2 1 5 2 7l117 250c1 2 3 3 5 3z" fill="currentColor"/>
</g>
</a>
<a style="color:inherit;" xlink:href="textedit://D:/Materi/Semester%208/Skripsi/NyanyianGPM/frontendNyanyianGPM/public/scores/contoh.ly:8:23:24">
<g transform="translate(47.7939, 12.6906)">
<path transform="scale(0.0040, -0.0040)" d="M102 135c9 2 18 3 27 3c33 0 70 -11 105 -36c21 -15 46 -23 66 -23c21 0 39 9 44 29c2 6 6 9 11 9c6 0 12 -5 12 -12c0 -1 -1 -2 -1 -3c-17 -65 -78 -102 -137 -102c-36 0 -71 14 -96 44c-13 16 -31 22 -48 22c-30 0 -59 -20 -62 -55c-1 -7 -6 -11 -11 -11
c-6 0 -12 4 -12 11v2c15 172 232 165 232 342c0 59 -16 122 -67 122c-25 0 -49 -14 -49 -37c0 -27 35 -41 35 -68c0 -38 -31 -69 -69 -69s-69 31 -69 69c0 76 72 128 152 128c95 0 183 -57 183 -145c0 -151 -150 -159 -246 -220z" fill="currentColor"/>
</g>
</a>
<a style="color:inherit;" xlink:href="textedit://D:/Materi/Semester%208/Skripsi/NyanyianGPM/frontendNyanyianGPM/public/scores/contoh.ly:8:9:10">
<g transform="translate(24.6460, 12.6906)">
<path transform="scale(0.0040, -0.0040)" d="M102 135c9 2 18 3 27 3c33 0 70 -11 105 -36c21 -15 46 -23 66 -23c21 0 39 9 44 29c2 6 6 9 11 9c6 0 12 -5 12 -12c0 -1 -1 -2 -1 -3c-17 -65 -78 -102 -137 -102c-36 0 -71 14 -96 44c-13 16 -31 22 -48 22c-30 0 -59 -20 -62 -55c-1 -7 -6 -11 -11 -11
c-6 0 -12 4 -12 11v2c15 172 232 165 232 342c0 59 -16 122 -67 122c-25 0 -49 -14 -49 -37c0 -27 35 -41 35 -68c0 -38 -31 -69 -69 -69s-69 31 -69 69c0 76 72 128 152 128c95 0 183 -57 183 -145c0 -151 -150 -159 -246 -220z" fill="currentColor"/>
</g>
</a>
<a style="color:inherit;" xlink:href="textedit://D:/Materi/Semester%208/Skripsi/NyanyianGPM/frontendNyanyianGPM/public/scores/contoh.ly:7:6:7">
<g transform="translate(18.0717, 11.6906)">
<path transform="scale(0.0040, -0.0040)" d="M196 117h117c0 -48 27 -94 72 -94c8 0 12 -5 12 -11s-4 -12 -12 -12c-44 0 -87 13 -131 13s-87 -13 -131 -13c-8 0 -12 6 -12 12s4 11 12 11c45 0 73 46 73 94zM204 307c22 14 44 29 60 50c11 15 19 33 27 50c2 4 5 6 9 6c6 0 13 -5 13 -14v-245h72c10 0 15 -7 15 -14
s-5 -15 -15 -15h-72v-8h-117v8h-167c-23 0 -31 14 -31 23c0 3 1 5 2 6c80 93 138 207 138 330c0 9 6 16 13 16h3c23 -7 47 -13 71 -13s48 6 71 13c2 1 3 1 5 1c8 0 14 -6 14 -12c0 -2 -1 -3 -2 -5l-284 -330h167v131c0 8 1 17 8 22z" fill="currentColor"/>
</g>
<g transform="translate(18.0717, 13.6906)">
<path transform="scale(0.0040, -0.0040)" d="M196 117h117c0 -48 27 -94 72 -94c8 0 12 -5 12 -11s-4 -12 -12 -12c-44 0 -87 13 -131 13s-87 -13 -131 -13c-8 0 -12 6 -12 12s4 11 12 11c45 0 73 46 73 94zM204 307c22 14 44 29 60 50c11 15 19 33 27 50c2 4 5 6 9 6c6 0 13 -5 13 -14v-245h72c10 0 15 -7 15 -14
s-5 -15 -15 -15h-72v-8h-117v8h-167c-23 0 -31 14 -31 23c0 3 1 5 2 6c80 93 138 207 138 330c0 9 6 16 13 16h3c23 -7 47 -13 71 -13s48 6 71 13c2 1 3 1 5 1c8 0 14 -6 14 -12c0 -2 -1 -3 -2 -5l-284 -330h167v131c0 8 1 17 8 22z" fill="currentColor"/>
</g>
</a>
<a style="color:inherit;" xlink:href="textedit://D:/Materi/Semester%208/Skripsi/NyanyianGPM/frontendNyanyianGPM/public/scores/contoh.ly:8:6:7">
<g transform="translate(21.6764, 12.6906)">
<path transform="scale(0.0040, -0.0040)" d="M122 503c18 0 34 -16 53 -16c12 0 33 12 46 12c7 0 12 -3 12 -15v-367c0 -48 28 -94 73 -94c8 0 12 -5 12 -11s-4 -12 -12 -12c-44 0 -87 13 -131 13s-87 -13 -131 -13c-8 0 -12 6 -12 12s4 11 12 11c45 0 73 46 73 94v245c0 12 -9 19 -17 19c-4 0 -8 -3 -10 -7l-64 -136
c-3 -6 -7 -9 -12 -9c-8 0 -16 6 -16 14c0 2 1 5 2 7l117 250c1 2 3 3 5 3z" fill="currentColor"/>
</g>
</a>
<a style="color:inherit;" xlink:href="textedit://D:/Materi/Semester%208/Skripsi/NyanyianGPM/frontendNyanyianGPM/public/scores/contoh.ly:8:15:16">
<g transform="translate(34.5802, 12.6906)">
<path transform="scale(0.0040, -0.0040)" d="M48 500c45 -8 90 -13 135 -13s91 5 136 13h3c9 0 15 -5 15 -11c0 -2 -1 -4 -2 -5c-67 -67 -163 -93 -258 -93c-9 0 -16 -8 -16 -17v-96c28 28 64 43 103 43c115 0 185 -51 185 -161c0 -94 -87 -160 -186 -160c-82 0 -163 39 -163 113c0 36 30 66 66 66s65 -30 65 -66
c0 -25 -40 -28 -40 -53c0 -30 37 -37 72 -37c57 0 70 71 70 137c0 63 -15 132 -69 132c-42 0 -82 -12 -106 -45c-3 -4 -8 -6 -12 -6c-8 0 -15 6 -15 15v228c0 9 7 16 15 16h2z" fill="currentColor"/>
</g>
</a>
<a style="color:inherit;" xlink:href="textedit://D:/Materi/Semester%208/Skripsi/NyanyianGPM/frontendNyanyianGPM/public/scores/contoh.ly:8:13:14">
<g transform="translate(30.8421, 11.6906)">
<path transform="scale(0.0040, -0.0040)" d="M-23 -116c0 28 11 42 40 42c33 0 78 -13 119 -31l-132 158c-7 9 -10 17 -10 25c0 34 50 66 87 99c25 22 37 52 37 83c0 24 -8 49 -25 69l-35 42c-3 3 -4 7 -4 10c0 9 9 15 17 15c4 0 8 -1 11 -5l151 -180c7 -9 10 -17 10 -25c0 -34 -50 -66 -87 -99
c-25 -22 -37 -52 -37 -83c0 -24 7 -49 24 -69l84 -99c3 -3 4 -7 4 -10c0 -9 -8 -16 -16 -16c-4 0 -9 2 -12 6c-18 21 -63 38 -97 38c-41 0 -53 -26 -53 -67c0 -35 11 -74 28 -94c1 -2 2 -4 2 -6c0 -4 -4 -7 -8 -7c-2 0 -4 0 -6 2c-45 54 -92 148 -92 202z" fill="currentColor"/>
</g>
</a>
<a style="color:inherit;" xlink:href="textedit://D:/Materi/Semester%208/Skripsi/NyanyianGPM/frontendNyanyianGPM/public/scores/contoh.ly:8:11:12">
<g transform="translate(27.8107, 12.6906)">
<path transform="scale(0.0040, -0.0040)" d="M150 477c-28 0 -57 -9 -57 -33c0 -22 35 -25 35 -47c0 -32 -25 -58 -57 -58s-58 26 -58 58c0 64 67 103 137 103c91 0 169 -33 169 -114c0 -43 -4 -82 -42 -100c-9 -4 -14 -12 -14 -21s5 -18 14 -22c41 -19 56 -57 56 -103c0 -92 -79 -140 -179 -140
c-79 0 -154 42 -154 113c0 36 30 66 66 66s65 -30 65 -66c0 -25 -40 -28 -40 -53c0 -27 32 -37 63 -37c49 0 63 61 63 117v16c0 54 -2 94 -50 94h-80c-10 0 -14 8 -14 15s4 14 14 14h80c49 0 50 43 50 99v8c0 54 -18 91 -67 91z" fill="currentColor"/>
</g>
</a>
<g transform="translate(51.5735, 162.8440)">
<a xlink:href="https://lilypond.org">
<rect x="0.0000" y="-0.4748" width="16.3546" height="2.0024" fill="none" stroke="none" stroke-width="0.0"/>
</a>
</g>
<g transform="translate(51.5735, 162.8440)">
<text font-family="serif" font-size="2.2000" text-anchor="start" fill="currentColor">
<tspan>LilyPond v2.25.33</tspan>
</text>
</g>
</svg>
